<?xml version="1.0" encoding="UTF-8" standalone="no"?><!DOCTYPE svg PUBLIC "-//W3C//DTD SVG 1.1//EN" "http://www.w3.org/Graphics/SVG/1.1/DTD/svg11.dtd"><svg width="100%" height="100%" viewBox="0 0 64 64" version="1.1" xmlns="http://www.w3.org/2000/svg" xmlns:xlink="http://www.w3.org/1999/xlink" xml:space="preserve" xmlns:serif="http://www.serif.com/" style="fill-rule:evenodd;clip-rule:evenodd;stroke-linejoin:round;stroke-miterlimit:2;"><g><circle cx="32" cy="32" r="32" style="fill:#ebebeb;"/><path d="M52.386,40.288c-0.415,1.023 0.077,2.19 1.101,2.605c1.023,0.415 2.19,-0.077 2.605,-1.101c3.811,-9.387 1.912,-20.557 -5.707,-28.177c-10.154,-10.154 -26.616,-10.154 -36.77,-0c-10.154,10.154 -10.154,26.616 -0,36.77c7.62,7.62 18.789,9.518 28.177,5.707c1.024,-0.416 1.516,-1.582 1.101,-2.605c-0.416,-1.023 -1.582,-1.516 -2.605,-1.101c-7.951,3.228 -17.4,1.614 -23.844,-4.83c-8.592,-8.592 -8.591,-22.521 0,-31.113c8.592,-8.592 22.521,-8.592 31.113,0c6.443,6.443 8.057,15.893 4.83,23.844Z" style="fill-rule:nonzero;"/><path d="M49.443,52.271c0.781,0.781 2.047,0.781 2.828,0c0.781,-0.781 0.781,-2.047 0,-2.828l-7.542,-7.542c-0.781,-0.781 -2.047,-0.781 -2.828,0c-0.781,0.781 -0.781,2.047 0,2.828l7.542,7.542Z" style="fill-rule:nonzero;"/></g></svg>