<?xml version="1.0" encoding="UTF-8" standalone="no"?>
<!DOCTYPE svg PUBLIC "-//W3C//DTD SVG 1.1//EN" "http://www.w3.org/Graphics/SVG/1.1/DTD/svg11.dtd">
<svg width="100%" height="100%" viewBox="0 0 24 24" version="1.1" xmlns="http://www.w3.org/2000/svg" xmlns:xlink="http://www.w3.org/1999/xlink" xml:space="preserve" xmlns:serif="http://www.serif.com/" style="fill-rule:evenodd;clip-rule:evenodd;stroke-linecap:round;stroke-linejoin:round;stroke-miterlimit:1.5;">
    <g transform="matrix(1,0,0,1,0,-0.785357)">
        <path d="M6.061,4C7.248,2.918 8.108,4.404 9,4C12.522,2.404 14,5 14,5L14.95,5.616C14.95,5.616 16.227,4.462 16.961,5.498C17.95,6.894 16.379,7.587 16.379,7.587L16.917,11.055C17.566,11.576 17.696,12.243 17.208,13.085C18.288,14.716 19.264,20.431 18.231,21.828C17.146,23.026 15.917,19.787 15.574,18.637C15.244,17.533 14.883,13.328 14.883,13.328C14.059,12.655 14.076,11.921 14.697,11.144C14.697,11.144 14.569,9.251 14,8C13.812,7.587 11.75,6.878 11.75,6.878C11.409,6.28 10.859,6.097 10.048,6.431C10.048,6.431 8.381,6.262 8.184,6.377L8.123,9.146C8.499,9.903 8.41,10.595 7.999,11.242C8.545,11.95 7.939,18.038 7,18C6.058,17.962 5.299,16.599 5.236,15.658C5.192,14.999 5.884,11.17 5.884,11.17C5.46,10.496 5.434,9.794 5.9,9.058L6.145,6.077C6.145,6.077 5.252,4.745 6.061,4Z" style="fill:none;stroke:black;stroke-width:1.5px;"/>
    </g>
</svg>
