<?xml version="1.0" encoding="UTF-8" standalone="no"?>
<!DOCTYPE svg PUBLIC "-//W3C//DTD SVG 1.1//EN" "http://www.w3.org/Graphics/SVG/1.1/DTD/svg11.dtd">
<svg width="100%" height="100%" viewBox="0 0 24 24" version="1.1" xmlns="http://www.w3.org/2000/svg" xmlns:xlink="http://www.w3.org/1999/xlink" xml:space="preserve" xmlns:serif="http://www.serif.com/" style="fill-rule:evenodd;clip-rule:evenodd;stroke-linecap:round;stroke-linejoin:round;stroke-miterlimit:1.5;">
    <g transform="matrix(1.263648,0,0,1.263648,-3.279157,-3.317306)">
        <path d="M9,5C7.042,7.048 6.737,17.001 8.837,19.2C10.261,20.691 14.023,19.58 15.221,17.902C15.612,16.808 15.283,7.994 14.283,5.911C13.547,4.379 10.174,3.771 9,5Z" style="fill:none;stroke:black;stroke-width:1.19px;"/>
    </g>
    <g transform="matrix(1.263648,0,0,1.263648,-5.732733,-6.885591)">
        <path d="M18.392,10.865C18.69,10.716 19.364,10.283 19.423,10.616C19.535,11.243 19.631,13.492 19.364,14C18.886,14.454 18.93,14.374 18.93,14.374" style="fill:none;stroke:black;stroke-width:1.19px;"/>
    </g>
</svg>
