<?xml version="1.0" encoding="UTF-8" standalone="no"?>
<!DOCTYPE svg PUBLIC "-//W3C//DTD SVG 1.1//EN" "http://www.w3.org/Graphics/SVG/1.1/DTD/svg11.dtd">
<svg width="100%" height="100%" viewBox="0 0 24 24" version="1.1" xmlns="http://www.w3.org/2000/svg" xmlns:xlink="http://www.w3.org/1999/xlink" xml:space="preserve" xmlns:serif="http://www.serif.com/" style="fill-rule:evenodd;clip-rule:evenodd;stroke-linecap:round;stroke-linejoin:round;stroke-miterlimit:1.5;">
    <path d="M14.25,3.125L14.25,16.875C14.25,17.496 13.746,18 13.125,18L10.875,18C10.254,18 9.75,17.496 9.75,16.875L9.75,3.125C9.75,2.504 10.254,2 10.875,2L13.125,2C13.746,2 14.25,2.504 14.25,3.125Z" style="fill:none;stroke:black;stroke-width:1.5px;"/>
    <path d="M16.5,13C17.742,13 18.45,14 18.75,15.25L19.75,19.75C19.75,20.992 18.742,22 17.5,22L6.5,22C5.258,22 4.25,20.992 4.25,19.75L5.25,15.25C5.609,13.89 6.258,13 7.5,13" style="fill:none;stroke:black;stroke-width:1.5px;"/>
</svg>
