<?xml version="1.0" encoding="UTF-8" standalone="no"?>
<!DOCTYPE svg PUBLIC "-//W3C//DTD SVG 1.1//EN" "http://www.w3.org/Graphics/SVG/1.1/DTD/svg11.dtd">
<svg width="100%" height="100%" viewBox="0 0 412 412" version="1.1" xmlns="http://www.w3.org/2000/svg" xmlns:xlink="http://www.w3.org/1999/xlink" xml:space="preserve" xmlns:serif="http://www.serif.com/" style="fill-rule:evenodd;clip-rule:evenodd;stroke-linejoin:round;stroke-miterlimit:2;">
    <g transform="matrix(5.528449,0,0,5.528449,-933.919097,-934.190802)">
        <g transform="matrix(1,0,0,1,132,142)">
            <path fill="white" d="M92.811,89.883C87.53,93.729 81.028,96 74,96C56.339,96 42,81.661 42,64C42,46.339 56.339,32 74,32C91.661,32 106,46.339 106,64C106,71.028 103.729,77.53 99.882,82.811L98.45,81.379C101.944,76.474 104,70.475 104,64C104,47.443 90.557,34 74,34C57.442,34 44,47.443 44,64C44,80.557 57.442,94 74,94C80.475,94 86.474,91.944 91.379,88.45L92.811,89.883Z"/>
        </g>
        <g transform="matrix(0.707107,-0.707107,0.707107,0.707107,-91.835826,222.217778)">
            <rect fill="white" x="221" y="199" width="2" height="45"/>
        </g>
    </g>
</svg>
