<?xml version="1.0" encoding="UTF-8" standalone="no"?>
<!DOCTYPE svg PUBLIC "-//W3C//DTD SVG 1.1//EN" "http://www.w3.org/Graphics/SVG/1.1/DTD/svg11.dtd">
<svg width="100%" height="100%" viewBox="0 0 24 24" version="1.1" xmlns="http://www.w3.org/2000/svg" xmlns:xlink="http://www.w3.org/1999/xlink" xml:space="preserve" xmlns:serif="http://www.serif.com/" style="fill-rule:evenodd;clip-rule:evenodd;stroke-linecap:round;stroke-linejoin:round;stroke-miterlimit:1.5;">
    <g transform="matrix(1.202934,0.278199,-0.257259,1.112386,0.898882,-4.860649)">
        <path d="M14,13.326C14,14.802 12.892,16 11.527,16L8.473,16C7.108,16 6,14.802 6,13.326C6,11.85 7.108,10.652 8.473,10.652L11.527,10.652C12.892,10.652 14,11.85 14,13.326ZM7.139,13.871C7.216,13.711 7.575,13.599 8.004,13.611C8.37,13.622 8.654,13.918 8.808,13.852C8.961,13.787 8.927,13.441 8.923,13.22C8.91,12.523 8.471,11.966 7.942,11.978C7.413,11.989 6.995,12.565 7.008,13.262C7.012,13.476 7.062,14.031 7.139,13.871ZM12.344,13.929C12.419,14.09 12.477,13.535 12.484,13.321C12.506,12.625 12.095,12.043 11.567,12.023C11.038,12.003 10.591,12.553 10.569,13.25C10.562,13.471 10.524,13.816 10.676,13.884C10.829,13.951 11.116,13.66 11.483,13.655C11.912,13.649 12.27,13.768 12.344,13.929Z" style="fill-opacity:0.5;"/>
    </g>
    <g transform="matrix(0.818182,0,0,1.052632,3.272727,-1.157895)">
        <path d="M12.5,7.678L12.5,4.341C12.5,3.601 13.273,3 14.225,3L16.275,3C17.227,3 18,3.601 18,4.341L18,9.508" style="fill:none;stroke:black;stroke-width:1.59px;"/>
    </g>
    <g transform="matrix(0.818182,0,0,1.052632,3.272727,-1.157895)">
        <path d="M18,17.368L18,20.659C18,21.399 17.227,22 16.275,22L14.225,22C13.273,22 12.5,21.399 12.5,20.659L12.5,19.643" style="fill:none;stroke:black;stroke-width:1.59px;"/>
    </g>
    <path d="M18.392,10.865C18.69,10.716 19.364,10.283 19.423,10.616C19.535,11.243 19.631,13.492 19.364,14C18.886,14.454 18.93,14.374 18.93,14.374" style="fill:none;stroke:black;stroke-width:1.5px;"/>
    <g transform="matrix(0.881117,0,0,0.855012,1.141186,1.862209)">
        <path d="M5.721,8.026C4.465,8.608 3.454,15.855 5,16.518C7.087,17.412 12.833,18.42 15,18C16.636,17.683 17.883,15.465 18,14C18.117,12.535 17.287,10 15.702,9.208C13.702,8.208 7.505,6.894 5.721,8.026Z" style="fill:none;stroke:black;stroke-width:1.73px;"/>
    </g>
</svg>
